<svg xmlns="http://www.w3.org/2000/svg" xmlns:xlink="http://www.w3.org/1999/xlink" contentStyleType="text/css" data-diagram-type="STATE" height="115px" preserveAspectRatio="none" style="width:309px;height:115px;background:#FFFFFF;" version="1.1" viewBox="0 0 309 115" width="309px" zoomAndPan="magnify"><defs/><g><g id="stateA"><rect fill="#F1F1F1" height="50" rx="12.5" ry="12.5" style="stroke:#181818;stroke-width:0.5;" width="50" x="7" y="32.5"/><line style="stroke:#181818;stroke-width:0.5;" x1="7" x2="57" y1="58.7969" y2="58.7969"/><text fill="#000000" font-family="sans-serif" font-size="14" lengthAdjust="spacing" textLength="9.5771" x="27.2114" y="50.4951">A</text></g><path d="M104,8.35 L150,8.35 A12.5,12.5 0 0 1 162.5,20.85 L162.5,34.6469 L91.5,34.6469 L91.5,20.85 A12.5,12.5 0 0 1 104,8.35" fill="#F1F1F1" style="stroke:#F1F1F1;stroke-width:1;"/><rect fill="none" height="98.2969" rx="12.5" ry="12.5" style="stroke:#181818;stroke-width:0.5;" width="71" x="91.5" y="8.35"/><line style="stroke:#181818;stroke-width:0.5;" x1="91.5" x2="162.5" y1="34.6469" y2="34.6469"/><text fill="#000000" font-family="sans-serif" font-size="14" lengthAdjust="spacing" textLength="9.7754" x="122.1123" y="26.3451">C</text><g id="stateC.B"><rect fill="#F1F1F1" height="50" rx="12.5" ry="12.5" style="stroke:#181818;stroke-width:0.5;" width="50" x="103.5" y="46.6469"/><line style="stroke:#181818;stroke-width:0.5;" x1="103.5" x2="153.5" y1="72.9438" y2="72.9438"/><text fill="#000000" font-family="sans-serif" font-size="14" lengthAdjust="spacing" textLength="9.6045" x="123.6978" y="64.642">B</text></g><rect fill="#F1F1F1" height="101.4844" rx="2.5" ry="2.5" style="stroke:#181818;stroke-width:0.5;" width="97.1777" x="205.5" y="7"/><text fill="#000000" font-family="sans-serif" font-size="14" lengthAdjust="spacing" textLength="32.751" x="237.7134" y="21.9951">jsonJ</text><line style="stroke:#181818;stroke-width:1;" x1="249.9736" x2="249.9736" y1="27.2969" y2="108.4844"/><line style="stroke:#181818;stroke-width:1;" x1="205.5" x2="302.6777" y1="27.2969" y2="27.2969"/><text fill="#000000" font-family="sans-serif" font-size="14" lengthAdjust="spacing" textLength="28.9365" x="210.5" y="42.292">fruit</text><text fill="#000000" font-family="sans-serif" font-size="14" lengthAdjust="spacing" textLength="39.8535" x="254.9736" y="42.292">Apple</text><line style="stroke:#181818;stroke-width:1;" x1="205.5" x2="302.6777" y1="47.5938" y2="47.5938"/><text fill="#000000" font-family="sans-serif" font-size="14" lengthAdjust="spacing" textLength="27.1455" x="210.5" y="62.5889">size</text><text fill="#000000" font-family="sans-serif" font-size="14" lengthAdjust="spacing" textLength="39.6348" x="254.9736" y="62.5889">Large</text><line style="stroke:#181818;stroke-width:1;" x1="205.5" x2="302.6777" y1="67.8906" y2="67.8906"/><text fill="#000000" font-family="sans-serif" font-size="14" lengthAdjust="spacing" textLength="34.4736" x="210.5" y="82.8857">color</text><text fill="#000000" font-family="sans-serif" font-size="14" lengthAdjust="spacing" textLength="27.2275" x="254.9736" y="82.8857">Red</text><line style="stroke:#181818;stroke-width:1;" x1="249.9736" x2="302.6777" y1="88.1875" y2="88.1875"/><text fill="#000000" font-family="sans-serif" font-size="14" lengthAdjust="spacing" textLength="42.7041" x="254.9736" y="103.1826">Green</text><!--SRC=[Aov9B4bLK79KKaWiLYW6SHovYY5YpWWnPuLgBWXBmOchbeihgpW_Jm54U84a51IKqefACqkKh9GS2mfoKfLqm6B5cLMfG26VnA9qc51oVav-aPALGhHIK6gAaew2adjHQcgUKYnNBG00]--></g></svg>